<mxfile host="Electron" agent="Mozilla/5.0 (Windows NT 10.0; Win64; x64) AppleWebKit/537.36 (KHTML, like Gecko) draw.io/24.7.17 Chrome/128.0.6613.36 Electron/32.0.1 Safari/537.36" version="24.7.17">
  <diagram name="Seite-1" id="NOvpom1u0hMTY5l3HxLv">
    <mxGraphModel dx="3154" dy="2056" grid="1" gridSize="10" guides="1" tooltips="1" connect="1" arrows="1" fold="1" page="1" pageScale="1" pageWidth="827" pageHeight="1169" math="0" shadow="0">
      <root>
        <mxCell id="0" />
        <mxCell id="1" parent="0" />
        <mxCell id="m5l0-rJSO9g28-vv7e-U-66" style="edgeStyle=orthogonalEdgeStyle;rounded=0;orthogonalLoop=1;jettySize=auto;html=1;" edge="1" parent="1" source="m5l0-rJSO9g28-vv7e-U-1" target="m5l0-rJSO9g28-vv7e-U-2">
          <mxGeometry relative="1" as="geometry" />
        </mxCell>
        <mxCell id="m5l0-rJSO9g28-vv7e-U-67" style="edgeStyle=orthogonalEdgeStyle;rounded=0;orthogonalLoop=1;jettySize=auto;html=1;" edge="1" parent="1" source="m5l0-rJSO9g28-vv7e-U-1" target="m5l0-rJSO9g28-vv7e-U-50">
          <mxGeometry relative="1" as="geometry" />
        </mxCell>
        <mxCell id="m5l0-rJSO9g28-vv7e-U-68" style="edgeStyle=orthogonalEdgeStyle;rounded=0;orthogonalLoop=1;jettySize=auto;html=1;" edge="1" parent="1" source="m5l0-rJSO9g28-vv7e-U-1" target="m5l0-rJSO9g28-vv7e-U-28">
          <mxGeometry relative="1" as="geometry" />
        </mxCell>
        <mxCell id="m5l0-rJSO9g28-vv7e-U-1" value="&lt;font style=&quot;font-size: 23px;&quot;&gt;mongoDB&lt;br&gt;Database&lt;/font&gt;" style="shape=datastore;whiteSpace=wrap;html=1;fillColor=#fff2cc;strokeColor=#d6b656;strokeWidth=5;" vertex="1" parent="1">
          <mxGeometry x="135" y="-150" width="190" height="190" as="geometry" />
        </mxCell>
        <mxCell id="m5l0-rJSO9g28-vv7e-U-2" value="scammer" style="shape=table;startSize=30;container=1;collapsible=0;childLayout=tableLayout;fixedRows=1;rowLines=0;fontStyle=0;strokeColor=#d79b00;fontSize=16;fillColor=#ffe6cc;" vertex="1" parent="1">
          <mxGeometry x="50" y="170" width="360" height="210" as="geometry" />
        </mxCell>
        <mxCell id="m5l0-rJSO9g28-vv7e-U-3" value="" style="shape=tableRow;horizontal=0;startSize=0;swimlaneHead=0;swimlaneBody=0;top=0;left=0;bottom=0;right=0;collapsible=0;dropTarget=0;fillColor=none;points=[[0,0.5],[1,0.5]];portConstraint=eastwest;strokeColor=inherit;fontSize=16;" vertex="1" parent="m5l0-rJSO9g28-vv7e-U-2">
          <mxGeometry y="30" width="360" height="30" as="geometry" />
        </mxCell>
        <mxCell id="m5l0-rJSO9g28-vv7e-U-4" value="1" style="shape=partialRectangle;html=1;whiteSpace=wrap;connectable=0;fillColor=none;top=0;left=0;bottom=0;right=0;overflow=hidden;pointerEvents=1;strokeColor=inherit;fontSize=16;" vertex="1" parent="m5l0-rJSO9g28-vv7e-U-3">
          <mxGeometry width="80" height="30" as="geometry">
            <mxRectangle width="80" height="30" as="alternateBounds" />
          </mxGeometry>
        </mxCell>
        <mxCell id="m5l0-rJSO9g28-vv7e-U-5" value="player -&amp;gt; ign" style="shape=partialRectangle;html=1;whiteSpace=wrap;connectable=0;fillColor=none;top=0;left=0;bottom=0;right=0;align=left;spacingLeft=6;overflow=hidden;strokeColor=inherit;fontSize=16;" vertex="1" parent="m5l0-rJSO9g28-vv7e-U-3">
          <mxGeometry x="80" width="280" height="30" as="geometry">
            <mxRectangle width="280" height="30" as="alternateBounds" />
          </mxGeometry>
        </mxCell>
        <mxCell id="m5l0-rJSO9g28-vv7e-U-6" value="" style="shape=tableRow;horizontal=0;startSize=0;swimlaneHead=0;swimlaneBody=0;top=0;left=0;bottom=0;right=0;collapsible=0;dropTarget=0;fillColor=none;points=[[0,0.5],[1,0.5]];portConstraint=eastwest;strokeColor=inherit;fontSize=16;" vertex="1" parent="m5l0-rJSO9g28-vv7e-U-2">
          <mxGeometry y="60" width="360" height="30" as="geometry" />
        </mxCell>
        <mxCell id="m5l0-rJSO9g28-vv7e-U-7" value="2" style="shape=partialRectangle;html=1;whiteSpace=wrap;connectable=0;fillColor=none;top=0;left=0;bottom=0;right=0;overflow=hidden;strokeColor=inherit;fontSize=16;" vertex="1" parent="m5l0-rJSO9g28-vv7e-U-6">
          <mxGeometry width="80" height="30" as="geometry">
            <mxRectangle width="80" height="30" as="alternateBounds" />
          </mxGeometry>
        </mxCell>
        <mxCell id="m5l0-rJSO9g28-vv7e-U-8" value="server (enum: West, East, Europe)" style="shape=partialRectangle;html=1;whiteSpace=wrap;connectable=0;fillColor=none;top=0;left=0;bottom=0;right=0;align=left;spacingLeft=6;overflow=hidden;strokeColor=inherit;fontSize=16;" vertex="1" parent="m5l0-rJSO9g28-vv7e-U-6">
          <mxGeometry x="80" width="280" height="30" as="geometry">
            <mxRectangle width="280" height="30" as="alternateBounds" />
          </mxGeometry>
        </mxCell>
        <mxCell id="m5l0-rJSO9g28-vv7e-U-9" value="" style="shape=tableRow;horizontal=0;startSize=0;swimlaneHead=0;swimlaneBody=0;top=0;left=0;bottom=0;right=0;collapsible=0;dropTarget=0;fillColor=none;points=[[0,0.5],[1,0.5]];portConstraint=eastwest;strokeColor=inherit;fontSize=16;" vertex="1" parent="m5l0-rJSO9g28-vv7e-U-2">
          <mxGeometry y="90" width="360" height="30" as="geometry" />
        </mxCell>
        <mxCell id="m5l0-rJSO9g28-vv7e-U-10" value="3" style="shape=partialRectangle;html=1;whiteSpace=wrap;connectable=0;fillColor=none;top=0;left=0;bottom=0;right=0;overflow=hidden;strokeColor=inherit;fontSize=16;" vertex="1" parent="m5l0-rJSO9g28-vv7e-U-9">
          <mxGeometry width="80" height="30" as="geometry">
            <mxRectangle width="80" height="30" as="alternateBounds" />
          </mxGeometry>
        </mxCell>
        <mxCell id="m5l0-rJSO9g28-vv7e-U-11" value="reason" style="shape=partialRectangle;html=1;whiteSpace=wrap;connectable=0;fillColor=none;top=0;left=0;bottom=0;right=0;align=left;spacingLeft=6;overflow=hidden;strokeColor=inherit;fontSize=16;" vertex="1" parent="m5l0-rJSO9g28-vv7e-U-9">
          <mxGeometry x="80" width="280" height="30" as="geometry">
            <mxRectangle width="280" height="30" as="alternateBounds" />
          </mxGeometry>
        </mxCell>
        <mxCell id="m5l0-rJSO9g28-vv7e-U-13" value="" style="shape=tableRow;horizontal=0;startSize=0;swimlaneHead=0;swimlaneBody=0;top=0;left=0;bottom=0;right=0;collapsible=0;dropTarget=0;fillColor=none;points=[[0,0.5],[1,0.5]];portConstraint=eastwest;strokeColor=inherit;fontSize=16;" vertex="1" parent="m5l0-rJSO9g28-vv7e-U-2">
          <mxGeometry y="120" width="360" height="30" as="geometry" />
        </mxCell>
        <mxCell id="m5l0-rJSO9g28-vv7e-U-14" value="4" style="shape=partialRectangle;html=1;whiteSpace=wrap;connectable=0;fillColor=none;top=0;left=0;bottom=0;right=0;overflow=hidden;strokeColor=inherit;fontSize=16;" vertex="1" parent="m5l0-rJSO9g28-vv7e-U-13">
          <mxGeometry width="80" height="30" as="geometry">
            <mxRectangle width="80" height="30" as="alternateBounds" />
          </mxGeometry>
        </mxCell>
        <mxCell id="m5l0-rJSO9g28-vv7e-U-15" value="banlist" style="shape=partialRectangle;html=1;whiteSpace=wrap;connectable=0;fillColor=none;top=0;left=0;bottom=0;right=0;align=left;spacingLeft=6;overflow=hidden;strokeColor=inherit;fontSize=16;" vertex="1" parent="m5l0-rJSO9g28-vv7e-U-13">
          <mxGeometry x="80" width="280" height="30" as="geometry">
            <mxRectangle width="280" height="30" as="alternateBounds" />
          </mxGeometry>
        </mxCell>
        <mxCell id="m5l0-rJSO9g28-vv7e-U-16" value="" style="shape=tableRow;horizontal=0;startSize=0;swimlaneHead=0;swimlaneBody=0;top=0;left=0;bottom=0;right=0;collapsible=0;dropTarget=0;fillColor=none;points=[[0,0.5],[1,0.5]];portConstraint=eastwest;strokeColor=inherit;fontSize=16;" vertex="1" parent="m5l0-rJSO9g28-vv7e-U-2">
          <mxGeometry y="150" width="360" height="30" as="geometry" />
        </mxCell>
        <mxCell id="m5l0-rJSO9g28-vv7e-U-17" value="5" style="shape=partialRectangle;html=1;whiteSpace=wrap;connectable=0;fillColor=none;top=0;left=0;bottom=0;right=0;overflow=hidden;strokeColor=inherit;fontSize=16;" vertex="1" parent="m5l0-rJSO9g28-vv7e-U-16">
          <mxGeometry width="80" height="30" as="geometry">
            <mxRectangle width="80" height="30" as="alternateBounds" />
          </mxGeometry>
        </mxCell>
        <mxCell id="m5l0-rJSO9g28-vv7e-U-18" value="addedBy (discord UID)" style="shape=partialRectangle;html=1;whiteSpace=wrap;connectable=0;fillColor=none;top=0;left=0;bottom=0;right=0;align=left;spacingLeft=6;overflow=hidden;strokeColor=inherit;fontSize=16;" vertex="1" parent="m5l0-rJSO9g28-vv7e-U-16">
          <mxGeometry x="80" width="280" height="30" as="geometry">
            <mxRectangle width="280" height="30" as="alternateBounds" />
          </mxGeometry>
        </mxCell>
        <mxCell id="m5l0-rJSO9g28-vv7e-U-19" value="" style="shape=tableRow;horizontal=0;startSize=0;swimlaneHead=0;swimlaneBody=0;top=0;left=0;bottom=0;right=0;collapsible=0;dropTarget=0;fillColor=none;points=[[0,0.5],[1,0.5]];portConstraint=eastwest;strokeColor=inherit;fontSize=16;" vertex="1" parent="m5l0-rJSO9g28-vv7e-U-2">
          <mxGeometry y="180" width="360" height="30" as="geometry" />
        </mxCell>
        <mxCell id="m5l0-rJSO9g28-vv7e-U-20" value="6" style="shape=partialRectangle;html=1;whiteSpace=wrap;connectable=0;fillColor=none;top=0;left=0;bottom=0;right=0;overflow=hidden;strokeColor=inherit;fontSize=16;" vertex="1" parent="m5l0-rJSO9g28-vv7e-U-19">
          <mxGeometry width="80" height="30" as="geometry">
            <mxRectangle width="80" height="30" as="alternateBounds" />
          </mxGeometry>
        </mxCell>
        <mxCell id="m5l0-rJSO9g28-vv7e-U-21" value="timestamp (Date.now)" style="shape=partialRectangle;html=1;whiteSpace=wrap;connectable=0;fillColor=none;top=0;left=0;bottom=0;right=0;align=left;spacingLeft=6;overflow=hidden;strokeColor=inherit;fontSize=16;" vertex="1" parent="m5l0-rJSO9g28-vv7e-U-19">
          <mxGeometry x="80" width="280" height="30" as="geometry">
            <mxRectangle width="280" height="30" as="alternateBounds" />
          </mxGeometry>
        </mxCell>
        <mxCell id="m5l0-rJSO9g28-vv7e-U-28" value="player" style="shape=table;startSize=30;container=1;collapsible=0;childLayout=tableLayout;fixedRows=1;rowLines=0;fontStyle=0;strokeColor=#d79b00;fontSize=16;fillColor=#ffe6cc;" vertex="1" parent="1">
          <mxGeometry x="530" y="170" width="360" height="150" as="geometry" />
        </mxCell>
        <mxCell id="m5l0-rJSO9g28-vv7e-U-29" value="" style="shape=tableRow;horizontal=0;startSize=0;swimlaneHead=0;swimlaneBody=0;top=0;left=0;bottom=0;right=0;collapsible=0;dropTarget=0;fillColor=none;points=[[0,0.5],[1,0.5]];portConstraint=eastwest;strokeColor=inherit;fontSize=16;" vertex="1" parent="m5l0-rJSO9g28-vv7e-U-28">
          <mxGeometry y="30" width="360" height="30" as="geometry" />
        </mxCell>
        <mxCell id="m5l0-rJSO9g28-vv7e-U-30" value="1" style="shape=partialRectangle;html=1;whiteSpace=wrap;connectable=0;fillColor=none;top=0;left=0;bottom=0;right=0;overflow=hidden;pointerEvents=1;strokeColor=inherit;fontSize=16;" vertex="1" parent="m5l0-rJSO9g28-vv7e-U-29">
          <mxGeometry width="80" height="30" as="geometry">
            <mxRectangle width="80" height="30" as="alternateBounds" />
          </mxGeometry>
        </mxCell>
        <mxCell id="m5l0-rJSO9g28-vv7e-U-31" value="ign" style="shape=partialRectangle;html=1;whiteSpace=wrap;connectable=0;fillColor=none;top=0;left=0;bottom=0;right=0;align=left;spacingLeft=6;overflow=hidden;strokeColor=inherit;fontSize=16;" vertex="1" parent="m5l0-rJSO9g28-vv7e-U-29">
          <mxGeometry x="80" width="280" height="30" as="geometry">
            <mxRectangle width="280" height="30" as="alternateBounds" />
          </mxGeometry>
        </mxCell>
        <mxCell id="m5l0-rJSO9g28-vv7e-U-32" value="" style="shape=tableRow;horizontal=0;startSize=0;swimlaneHead=0;swimlaneBody=0;top=0;left=0;bottom=0;right=0;collapsible=0;dropTarget=0;fillColor=none;points=[[0,0.5],[1,0.5]];portConstraint=eastwest;strokeColor=inherit;fontSize=16;" vertex="1" parent="m5l0-rJSO9g28-vv7e-U-28">
          <mxGeometry y="60" width="360" height="30" as="geometry" />
        </mxCell>
        <mxCell id="m5l0-rJSO9g28-vv7e-U-33" value="2" style="shape=partialRectangle;html=1;whiteSpace=wrap;connectable=0;fillColor=none;top=0;left=0;bottom=0;right=0;overflow=hidden;strokeColor=inherit;fontSize=16;" vertex="1" parent="m5l0-rJSO9g28-vv7e-U-32">
          <mxGeometry width="80" height="30" as="geometry">
            <mxRectangle width="80" height="30" as="alternateBounds" />
          </mxGeometry>
        </mxCell>
        <mxCell id="m5l0-rJSO9g28-vv7e-U-34" value="server (enum: West, East, Europe)" style="shape=partialRectangle;html=1;whiteSpace=wrap;connectable=0;fillColor=none;top=0;left=0;bottom=0;right=0;align=left;spacingLeft=6;overflow=hidden;strokeColor=inherit;fontSize=16;" vertex="1" parent="m5l0-rJSO9g28-vv7e-U-32">
          <mxGeometry x="80" width="280" height="30" as="geometry">
            <mxRectangle width="280" height="30" as="alternateBounds" />
          </mxGeometry>
        </mxCell>
        <mxCell id="m5l0-rJSO9g28-vv7e-U-35" value="" style="shape=tableRow;horizontal=0;startSize=0;swimlaneHead=0;swimlaneBody=0;top=0;left=0;bottom=0;right=0;collapsible=0;dropTarget=0;fillColor=none;points=[[0,0.5],[1,0.5]];portConstraint=eastwest;strokeColor=inherit;fontSize=16;" vertex="1" parent="m5l0-rJSO9g28-vv7e-U-28">
          <mxGeometry y="90" width="360" height="30" as="geometry" />
        </mxCell>
        <mxCell id="m5l0-rJSO9g28-vv7e-U-36" value="3" style="shape=partialRectangle;html=1;whiteSpace=wrap;connectable=0;fillColor=none;top=0;left=0;bottom=0;right=0;overflow=hidden;strokeColor=inherit;fontSize=16;" vertex="1" parent="m5l0-rJSO9g28-vv7e-U-35">
          <mxGeometry width="80" height="30" as="geometry">
            <mxRectangle width="80" height="30" as="alternateBounds" />
          </mxGeometry>
        </mxCell>
        <mxCell id="m5l0-rJSO9g28-vv7e-U-37" value="guild" style="shape=partialRectangle;html=1;whiteSpace=wrap;connectable=0;fillColor=none;top=0;left=0;bottom=0;right=0;align=left;spacingLeft=6;overflow=hidden;strokeColor=inherit;fontSize=16;" vertex="1" parent="m5l0-rJSO9g28-vv7e-U-35">
          <mxGeometry x="80" width="280" height="30" as="geometry">
            <mxRectangle width="280" height="30" as="alternateBounds" />
          </mxGeometry>
        </mxCell>
        <mxCell id="m5l0-rJSO9g28-vv7e-U-47" value="" style="shape=tableRow;horizontal=0;startSize=0;swimlaneHead=0;swimlaneBody=0;top=0;left=0;bottom=0;right=0;collapsible=0;dropTarget=0;fillColor=none;points=[[0,0.5],[1,0.5]];portConstraint=eastwest;strokeColor=inherit;fontSize=16;" vertex="1" parent="m5l0-rJSO9g28-vv7e-U-28">
          <mxGeometry y="120" width="360" height="30" as="geometry" />
        </mxCell>
        <mxCell id="m5l0-rJSO9g28-vv7e-U-48" value="4" style="shape=partialRectangle;html=1;whiteSpace=wrap;connectable=0;fillColor=none;top=0;left=0;bottom=0;right=0;overflow=hidden;strokeColor=inherit;fontSize=16;" vertex="1" parent="m5l0-rJSO9g28-vv7e-U-47">
          <mxGeometry width="80" height="30" as="geometry">
            <mxRectangle width="80" height="30" as="alternateBounds" />
          </mxGeometry>
        </mxCell>
        <mxCell id="m5l0-rJSO9g28-vv7e-U-49" value="lastUpdated" style="shape=partialRectangle;html=1;whiteSpace=wrap;connectable=0;fillColor=none;top=0;left=0;bottom=0;right=0;align=left;spacingLeft=6;overflow=hidden;strokeColor=inherit;fontSize=16;" vertex="1" parent="m5l0-rJSO9g28-vv7e-U-47">
          <mxGeometry x="80" width="280" height="30" as="geometry">
            <mxRectangle width="280" height="30" as="alternateBounds" />
          </mxGeometry>
        </mxCell>
        <mxCell id="m5l0-rJSO9g28-vv7e-U-50" value="banlist" style="shape=table;startSize=30;container=1;collapsible=0;childLayout=tableLayout;fixedRows=1;rowLines=0;fontStyle=0;strokeColor=#d79b00;fontSize=16;fillColor=#ffe6cc;" vertex="1" parent="1">
          <mxGeometry x="-400" y="170" width="360" height="150" as="geometry" />
        </mxCell>
        <mxCell id="m5l0-rJSO9g28-vv7e-U-51" value="" style="shape=tableRow;horizontal=0;startSize=0;swimlaneHead=0;swimlaneBody=0;top=0;left=0;bottom=0;right=0;collapsible=0;dropTarget=0;fillColor=none;points=[[0,0.5],[1,0.5]];portConstraint=eastwest;strokeColor=inherit;fontSize=16;" vertex="1" parent="m5l0-rJSO9g28-vv7e-U-50">
          <mxGeometry y="30" width="360" height="30" as="geometry" />
        </mxCell>
        <mxCell id="m5l0-rJSO9g28-vv7e-U-52" value="1" style="shape=partialRectangle;html=1;whiteSpace=wrap;connectable=0;fillColor=none;top=0;left=0;bottom=0;right=0;overflow=hidden;pointerEvents=1;strokeColor=inherit;fontSize=16;" vertex="1" parent="m5l0-rJSO9g28-vv7e-U-51">
          <mxGeometry width="80" height="30" as="geometry">
            <mxRectangle width="80" height="30" as="alternateBounds" />
          </mxGeometry>
        </mxCell>
        <mxCell id="m5l0-rJSO9g28-vv7e-U-53" value="name" style="shape=partialRectangle;html=1;whiteSpace=wrap;connectable=0;fillColor=none;top=0;left=0;bottom=0;right=0;align=left;spacingLeft=6;overflow=hidden;strokeColor=inherit;fontSize=16;" vertex="1" parent="m5l0-rJSO9g28-vv7e-U-51">
          <mxGeometry x="80" width="280" height="30" as="geometry">
            <mxRectangle width="280" height="30" as="alternateBounds" />
          </mxGeometry>
        </mxCell>
        <mxCell id="m5l0-rJSO9g28-vv7e-U-54" value="" style="shape=tableRow;horizontal=0;startSize=0;swimlaneHead=0;swimlaneBody=0;top=0;left=0;bottom=0;right=0;collapsible=0;dropTarget=0;fillColor=none;points=[[0,0.5],[1,0.5]];portConstraint=eastwest;strokeColor=inherit;fontSize=16;" vertex="1" parent="m5l0-rJSO9g28-vv7e-U-50">
          <mxGeometry y="60" width="360" height="30" as="geometry" />
        </mxCell>
        <mxCell id="m5l0-rJSO9g28-vv7e-U-55" value="2" style="shape=partialRectangle;html=1;whiteSpace=wrap;connectable=0;fillColor=none;top=0;left=0;bottom=0;right=0;overflow=hidden;strokeColor=inherit;fontSize=16;" vertex="1" parent="m5l0-rJSO9g28-vv7e-U-54">
          <mxGeometry width="80" height="30" as="geometry">
            <mxRectangle width="80" height="30" as="alternateBounds" />
          </mxGeometry>
        </mxCell>
        <mxCell id="m5l0-rJSO9g28-vv7e-U-56" value="owner (discord UID)" style="shape=partialRectangle;html=1;whiteSpace=wrap;connectable=0;fillColor=none;top=0;left=0;bottom=0;right=0;align=left;spacingLeft=6;overflow=hidden;strokeColor=inherit;fontSize=16;" vertex="1" parent="m5l0-rJSO9g28-vv7e-U-54">
          <mxGeometry x="80" width="280" height="30" as="geometry">
            <mxRectangle width="280" height="30" as="alternateBounds" />
          </mxGeometry>
        </mxCell>
        <mxCell id="m5l0-rJSO9g28-vv7e-U-57" value="" style="shape=tableRow;horizontal=0;startSize=0;swimlaneHead=0;swimlaneBody=0;top=0;left=0;bottom=0;right=0;collapsible=0;dropTarget=0;fillColor=none;points=[[0,0.5],[1,0.5]];portConstraint=eastwest;strokeColor=inherit;fontSize=16;" vertex="1" parent="m5l0-rJSO9g28-vv7e-U-50">
          <mxGeometry y="90" width="360" height="30" as="geometry" />
        </mxCell>
        <mxCell id="m5l0-rJSO9g28-vv7e-U-58" value="3" style="shape=partialRectangle;html=1;whiteSpace=wrap;connectable=0;fillColor=none;top=0;left=0;bottom=0;right=0;overflow=hidden;strokeColor=inherit;fontSize=16;" vertex="1" parent="m5l0-rJSO9g28-vv7e-U-57">
          <mxGeometry width="80" height="30" as="geometry">
            <mxRectangle width="80" height="30" as="alternateBounds" />
          </mxGeometry>
        </mxCell>
        <mxCell id="m5l0-rJSO9g28-vv7e-U-59" value="authorizedUsers[discord UID]" style="shape=partialRectangle;html=1;whiteSpace=wrap;connectable=0;fillColor=none;top=0;left=0;bottom=0;right=0;align=left;spacingLeft=6;overflow=hidden;strokeColor=inherit;fontSize=16;" vertex="1" parent="m5l0-rJSO9g28-vv7e-U-57">
          <mxGeometry x="80" width="280" height="30" as="geometry">
            <mxRectangle width="280" height="30" as="alternateBounds" />
          </mxGeometry>
        </mxCell>
        <mxCell id="m5l0-rJSO9g28-vv7e-U-69" value="" style="shape=tableRow;horizontal=0;startSize=0;swimlaneHead=0;swimlaneBody=0;top=0;left=0;bottom=0;right=0;collapsible=0;dropTarget=0;fillColor=none;points=[[0,0.5],[1,0.5]];portConstraint=eastwest;strokeColor=inherit;fontSize=16;" vertex="1" parent="m5l0-rJSO9g28-vv7e-U-50">
          <mxGeometry y="120" width="360" height="30" as="geometry" />
        </mxCell>
        <mxCell id="m5l0-rJSO9g28-vv7e-U-70" value="4" style="shape=partialRectangle;html=1;whiteSpace=wrap;connectable=0;fillColor=none;top=0;left=0;bottom=0;right=0;overflow=hidden;strokeColor=inherit;fontSize=16;" vertex="1" parent="m5l0-rJSO9g28-vv7e-U-69">
          <mxGeometry width="80" height="30" as="geometry">
            <mxRectangle width="80" height="30" as="alternateBounds" />
          </mxGeometry>
        </mxCell>
        <mxCell id="m5l0-rJSO9g28-vv7e-U-71" value="admins[discord UID]" style="shape=partialRectangle;html=1;whiteSpace=wrap;connectable=0;fillColor=none;top=0;left=0;bottom=0;right=0;align=left;spacingLeft=6;overflow=hidden;strokeColor=inherit;fontSize=16;" vertex="1" parent="m5l0-rJSO9g28-vv7e-U-69">
          <mxGeometry x="80" width="280" height="30" as="geometry">
            <mxRectangle width="280" height="30" as="alternateBounds" />
          </mxGeometry>
        </mxCell>
        <mxCell id="m5l0-rJSO9g28-vv7e-U-74" value="" style="edgeStyle=entityRelationEdgeStyle;fontSize=12;html=1;endArrow=ERoneToMany;rounded=0;" edge="1" parent="1" source="m5l0-rJSO9g28-vv7e-U-51" target="m5l0-rJSO9g28-vv7e-U-13">
          <mxGeometry width="100" height="100" relative="1" as="geometry">
            <mxPoint x="-20" y="260" as="sourcePoint" />
            <mxPoint x="80" y="160" as="targetPoint" />
          </mxGeometry>
        </mxCell>
        <mxCell id="m5l0-rJSO9g28-vv7e-U-75" value="" style="edgeStyle=entityRelationEdgeStyle;fontSize=12;html=1;endArrow=ERmandOne;rounded=0;" edge="1" parent="1" source="m5l0-rJSO9g28-vv7e-U-29" target="m5l0-rJSO9g28-vv7e-U-3">
          <mxGeometry width="100" height="100" relative="1" as="geometry">
            <mxPoint x="420" y="360" as="sourcePoint" />
            <mxPoint x="520" y="260" as="targetPoint" />
          </mxGeometry>
        </mxCell>
        <mxCell id="m5l0-rJSO9g28-vv7e-U-80" style="edgeStyle=orthogonalEdgeStyle;rounded=0;orthogonalLoop=1;jettySize=auto;html=1;" edge="1" parent="1" source="m5l0-rJSO9g28-vv7e-U-76" target="m5l0-rJSO9g28-vv7e-U-79">
          <mxGeometry relative="1" as="geometry">
            <mxPoint x="-520" y="700" as="targetPoint" />
          </mxGeometry>
        </mxCell>
        <mxCell id="m5l0-rJSO9g28-vv7e-U-76" value="&lt;font style=&quot;font-size: 15px;&quot;&gt;1-day cron-job&lt;/font&gt;" style="strokeWidth=2;html=1;shape=mxgraph.flowchart.start_2;whiteSpace=wrap;" vertex="1" parent="1">
          <mxGeometry x="-685" y="540" width="100" height="100" as="geometry" />
        </mxCell>
        <mxCell id="m5l0-rJSO9g28-vv7e-U-111" style="edgeStyle=orthogonalEdgeStyle;rounded=0;orthogonalLoop=1;jettySize=auto;html=1;" edge="1" parent="1" source="m5l0-rJSO9g28-vv7e-U-77" target="m5l0-rJSO9g28-vv7e-U-110">
          <mxGeometry relative="1" as="geometry" />
        </mxCell>
        <mxCell id="m5l0-rJSO9g28-vv7e-U-77" value="&lt;font style=&quot;font-size: 17px;&quot;&gt;/tracker add&lt;/font&gt;" style="strokeWidth=2;html=1;shape=mxgraph.flowchart.start_2;whiteSpace=wrap;" vertex="1" parent="1">
          <mxGeometry x="-338" y="540" width="100" height="100" as="geometry" />
        </mxCell>
        <mxCell id="m5l0-rJSO9g28-vv7e-U-78" value="&lt;font style=&quot;font-size: 17px;&quot;&gt;/tracker setup&lt;/font&gt;" style="strokeWidth=2;html=1;shape=mxgraph.flowchart.start_2;whiteSpace=wrap;" vertex="1" parent="1">
          <mxGeometry x="-145" y="570" width="100" height="100" as="geometry" />
        </mxCell>
        <mxCell id="m5l0-rJSO9g28-vv7e-U-79" value="&lt;br&gt;Update daily scammer lists:&lt;br&gt;&lt;br&gt;for each player in players database:&lt;br&gt;API request guild;&lt;br&gt;player.guild insert guild;&lt;br&gt;&lt;br&gt;for each listMessage in server in servers database:&amp;nbsp;&lt;br&gt;message edit: list scammers that have guilds&lt;div&gt;&lt;br&gt;&lt;/div&gt;" style="rounded=1;whiteSpace=wrap;html=1;absoluteArcSize=1;arcSize=14;strokeWidth=2;align=left;" vertex="1" parent="1">
          <mxGeometry x="-760" y="700" width="250" height="160" as="geometry" />
        </mxCell>
        <mxCell id="m5l0-rJSO9g28-vv7e-U-81" value="server" style="shape=table;startSize=30;container=1;collapsible=0;childLayout=tableLayout;fixedRows=1;rowLines=0;fontStyle=0;strokeColor=#d79b00;fontSize=16;fillColor=#ffe6cc;" vertex="1" parent="1">
          <mxGeometry x="-870" y="-30" width="360" height="120" as="geometry" />
        </mxCell>
        <mxCell id="m5l0-rJSO9g28-vv7e-U-82" value="" style="shape=tableRow;horizontal=0;startSize=0;swimlaneHead=0;swimlaneBody=0;top=0;left=0;bottom=0;right=0;collapsible=0;dropTarget=0;fillColor=none;points=[[0,0.5],[1,0.5]];portConstraint=eastwest;strokeColor=inherit;fontSize=16;" vertex="1" parent="m5l0-rJSO9g28-vv7e-U-81">
          <mxGeometry y="30" width="360" height="30" as="geometry" />
        </mxCell>
        <mxCell id="m5l0-rJSO9g28-vv7e-U-83" value="1" style="shape=partialRectangle;html=1;whiteSpace=wrap;connectable=0;fillColor=none;top=0;left=0;bottom=0;right=0;overflow=hidden;pointerEvents=1;strokeColor=inherit;fontSize=16;" vertex="1" parent="m5l0-rJSO9g28-vv7e-U-82">
          <mxGeometry width="80" height="30" as="geometry">
            <mxRectangle width="80" height="30" as="alternateBounds" />
          </mxGeometry>
        </mxCell>
        <mxCell id="m5l0-rJSO9g28-vv7e-U-84" value="server ID" style="shape=partialRectangle;html=1;whiteSpace=wrap;connectable=0;fillColor=none;top=0;left=0;bottom=0;right=0;align=left;spacingLeft=6;overflow=hidden;strokeColor=inherit;fontSize=16;" vertex="1" parent="m5l0-rJSO9g28-vv7e-U-82">
          <mxGeometry x="80" width="280" height="30" as="geometry">
            <mxRectangle width="280" height="30" as="alternateBounds" />
          </mxGeometry>
        </mxCell>
        <mxCell id="m5l0-rJSO9g28-vv7e-U-85" value="" style="shape=tableRow;horizontal=0;startSize=0;swimlaneHead=0;swimlaneBody=0;top=0;left=0;bottom=0;right=0;collapsible=0;dropTarget=0;fillColor=none;points=[[0,0.5],[1,0.5]];portConstraint=eastwest;strokeColor=inherit;fontSize=16;" vertex="1" parent="m5l0-rJSO9g28-vv7e-U-81">
          <mxGeometry y="60" width="360" height="30" as="geometry" />
        </mxCell>
        <mxCell id="m5l0-rJSO9g28-vv7e-U-86" value="2" style="shape=partialRectangle;html=1;whiteSpace=wrap;connectable=0;fillColor=none;top=0;left=0;bottom=0;right=0;overflow=hidden;strokeColor=inherit;fontSize=16;" vertex="1" parent="m5l0-rJSO9g28-vv7e-U-85">
          <mxGeometry width="80" height="30" as="geometry">
            <mxRectangle width="80" height="30" as="alternateBounds" />
          </mxGeometry>
        </mxCell>
        <mxCell id="m5l0-rJSO9g28-vv7e-U-87" value="channel" style="shape=partialRectangle;html=1;whiteSpace=wrap;connectable=0;fillColor=none;top=0;left=0;bottom=0;right=0;align=left;spacingLeft=6;overflow=hidden;strokeColor=inherit;fontSize=16;" vertex="1" parent="m5l0-rJSO9g28-vv7e-U-85">
          <mxGeometry x="80" width="280" height="30" as="geometry">
            <mxRectangle width="280" height="30" as="alternateBounds" />
          </mxGeometry>
        </mxCell>
        <mxCell id="m5l0-rJSO9g28-vv7e-U-88" value="" style="shape=tableRow;horizontal=0;startSize=0;swimlaneHead=0;swimlaneBody=0;top=0;left=0;bottom=0;right=0;collapsible=0;dropTarget=0;fillColor=none;points=[[0,0.5],[1,0.5]];portConstraint=eastwest;strokeColor=inherit;fontSize=16;" vertex="1" parent="m5l0-rJSO9g28-vv7e-U-81">
          <mxGeometry y="90" width="360" height="30" as="geometry" />
        </mxCell>
        <mxCell id="m5l0-rJSO9g28-vv7e-U-89" value="3" style="shape=partialRectangle;html=1;whiteSpace=wrap;connectable=0;fillColor=none;top=0;left=0;bottom=0;right=0;overflow=hidden;strokeColor=inherit;fontSize=16;" vertex="1" parent="m5l0-rJSO9g28-vv7e-U-88">
          <mxGeometry width="80" height="30" as="geometry">
            <mxRectangle width="80" height="30" as="alternateBounds" />
          </mxGeometry>
        </mxCell>
        <mxCell id="m5l0-rJSO9g28-vv7e-U-90" value="lists[listMessages]" style="shape=partialRectangle;html=1;whiteSpace=wrap;connectable=0;fillColor=none;top=0;left=0;bottom=0;right=0;align=left;spacingLeft=6;overflow=hidden;strokeColor=inherit;fontSize=16;" vertex="1" parent="m5l0-rJSO9g28-vv7e-U-88">
          <mxGeometry x="80" width="280" height="30" as="geometry">
            <mxRectangle width="280" height="30" as="alternateBounds" />
          </mxGeometry>
        </mxCell>
        <mxCell id="m5l0-rJSO9g28-vv7e-U-94" value="&lt;font style=&quot;font-size: 17px;&quot;&gt;/tracker check&lt;/font&gt;" style="strokeWidth=2;html=1;shape=mxgraph.flowchart.start_2;whiteSpace=wrap;" vertex="1" parent="1">
          <mxGeometry x="25" y="570" width="100" height="100" as="geometry" />
        </mxCell>
        <mxCell id="m5l0-rJSO9g28-vv7e-U-95" value="&lt;font style=&quot;font-size: 17px;&quot;&gt;/tracker help&lt;/font&gt;" style="strokeWidth=2;html=1;shape=mxgraph.flowchart.start_2;whiteSpace=wrap;" vertex="1" parent="1">
          <mxGeometry x="205" y="570" width="100" height="100" as="geometry" />
        </mxCell>
        <mxCell id="m5l0-rJSO9g28-vv7e-U-96" value="listMessages" style="shape=table;startSize=30;container=1;collapsible=0;childLayout=tableLayout;fixedRows=1;rowLines=0;fontStyle=0;strokeColor=#d79b00;fontSize=16;fillColor=#ffe6cc;" vertex="1" parent="1">
          <mxGeometry x="-870" y="170" width="360" height="90" as="geometry" />
        </mxCell>
        <mxCell id="m5l0-rJSO9g28-vv7e-U-97" value="" style="shape=tableRow;horizontal=0;startSize=0;swimlaneHead=0;swimlaneBody=0;top=0;left=0;bottom=0;right=0;collapsible=0;dropTarget=0;fillColor=none;points=[[0,0.5],[1,0.5]];portConstraint=eastwest;strokeColor=inherit;fontSize=16;" vertex="1" parent="m5l0-rJSO9g28-vv7e-U-96">
          <mxGeometry y="30" width="360" height="30" as="geometry" />
        </mxCell>
        <mxCell id="m5l0-rJSO9g28-vv7e-U-98" value="1" style="shape=partialRectangle;html=1;whiteSpace=wrap;connectable=0;fillColor=none;top=0;left=0;bottom=0;right=0;overflow=hidden;pointerEvents=1;strokeColor=inherit;fontSize=16;" vertex="1" parent="m5l0-rJSO9g28-vv7e-U-97">
          <mxGeometry width="80" height="30" as="geometry">
            <mxRectangle width="80" height="30" as="alternateBounds" />
          </mxGeometry>
        </mxCell>
        <mxCell id="m5l0-rJSO9g28-vv7e-U-99" value="message ID" style="shape=partialRectangle;html=1;whiteSpace=wrap;connectable=0;fillColor=none;top=0;left=0;bottom=0;right=0;align=left;spacingLeft=6;overflow=hidden;strokeColor=inherit;fontSize=16;" vertex="1" parent="m5l0-rJSO9g28-vv7e-U-97">
          <mxGeometry x="80" width="280" height="30" as="geometry">
            <mxRectangle width="280" height="30" as="alternateBounds" />
          </mxGeometry>
        </mxCell>
        <mxCell id="m5l0-rJSO9g28-vv7e-U-100" value="" style="shape=tableRow;horizontal=0;startSize=0;swimlaneHead=0;swimlaneBody=0;top=0;left=0;bottom=0;right=0;collapsible=0;dropTarget=0;fillColor=none;points=[[0,0.5],[1,0.5]];portConstraint=eastwest;strokeColor=inherit;fontSize=16;" vertex="1" parent="m5l0-rJSO9g28-vv7e-U-96">
          <mxGeometry y="60" width="360" height="30" as="geometry" />
        </mxCell>
        <mxCell id="m5l0-rJSO9g28-vv7e-U-101" value="2" style="shape=partialRectangle;html=1;whiteSpace=wrap;connectable=0;fillColor=none;top=0;left=0;bottom=0;right=0;overflow=hidden;strokeColor=inherit;fontSize=16;" vertex="1" parent="m5l0-rJSO9g28-vv7e-U-100">
          <mxGeometry width="80" height="30" as="geometry">
            <mxRectangle width="80" height="30" as="alternateBounds" />
          </mxGeometry>
        </mxCell>
        <mxCell id="m5l0-rJSO9g28-vv7e-U-102" value="list" style="shape=partialRectangle;html=1;whiteSpace=wrap;connectable=0;fillColor=none;top=0;left=0;bottom=0;right=0;align=left;spacingLeft=6;overflow=hidden;strokeColor=inherit;fontSize=16;" vertex="1" parent="m5l0-rJSO9g28-vv7e-U-100">
          <mxGeometry x="80" width="280" height="30" as="geometry">
            <mxRectangle width="280" height="30" as="alternateBounds" />
          </mxGeometry>
        </mxCell>
        <mxCell id="m5l0-rJSO9g28-vv7e-U-106" value="" style="edgeStyle=entityRelationEdgeStyle;fontSize=12;html=1;endArrow=ERzeroToMany;startArrow=ERzeroToOne;rounded=0;" edge="1" parent="1" source="m5l0-rJSO9g28-vv7e-U-88" target="m5l0-rJSO9g28-vv7e-U-96">
          <mxGeometry width="100" height="100" relative="1" as="geometry">
            <mxPoint x="-610" y="340" as="sourcePoint" />
            <mxPoint x="-510" y="240" as="targetPoint" />
          </mxGeometry>
        </mxCell>
        <mxCell id="m5l0-rJSO9g28-vv7e-U-107" value="" style="edgeStyle=entityRelationEdgeStyle;fontSize=12;html=1;endArrow=ERmandOne;startArrow=ERmandOne;rounded=0;" edge="1" parent="1" source="m5l0-rJSO9g28-vv7e-U-100" target="m5l0-rJSO9g28-vv7e-U-51">
          <mxGeometry width="100" height="100" relative="1" as="geometry">
            <mxPoint x="-500" y="470" as="sourcePoint" />
            <mxPoint x="-400" y="370" as="targetPoint" />
          </mxGeometry>
        </mxCell>
        <mxCell id="m5l0-rJSO9g28-vv7e-U-108" value="&lt;font style=&quot;font-size: 18px;&quot;&gt;guildCreate&lt;/font&gt;" style="strokeWidth=2;html=1;shape=mxgraph.flowchart.start_2;whiteSpace=wrap;" vertex="1" parent="1">
          <mxGeometry x="395" y="570" width="100" height="100" as="geometry" />
        </mxCell>
        <mxCell id="m5l0-rJSO9g28-vv7e-U-109" value="&lt;font style=&quot;font-size: 39px;&quot;&gt;Events&lt;/font&gt;" style="text;align=center;fontStyle=1;verticalAlign=middle;spacingLeft=3;spacingRight=3;strokeColor=none;rotatable=0;points=[[0,0.5],[1,0.5]];portConstraint=eastwest;html=1;" vertex="1" parent="1">
          <mxGeometry x="-75" y="480" width="80" height="26" as="geometry" />
        </mxCell>
        <mxCell id="m5l0-rJSO9g28-vv7e-U-110" value="&lt;div&gt;&lt;br&gt;&lt;/div&gt;" style="rounded=1;whiteSpace=wrap;html=1;absoluteArcSize=1;arcSize=14;strokeWidth=2;align=left;" vertex="1" parent="1">
          <mxGeometry x="-413" y="700" width="250" height="160" as="geometry" />
        </mxCell>
      </root>
    </mxGraphModel>
  </diagram>
</mxfile>
